<svg width="16" height="16" viewBox="0 0 16 16" fill="none" xmlns="http://www.w3.org/2000/svg">
<path d="M8.39896 13.2219L7.69714 13.1258C7.69714 13.1258 7.23458 13.0298 6.99532 12.9177C6.86772 12.8857 6.69226 12.9177 6.59656 13.0138L6.43705 13.1738C5.46408 14.1504 3.90093 14.2464 2.89605 13.382C1.76357 12.4054 1.73167 10.6765 2.76845 9.63593L5.30457 7.09056C5.63953 6.75438 6.03829 6.56228 6.43705 6.4182C6.96342 6.29013 7.53763 6.32215 8.0321 6.51425C8.33516 6.64232 8.63822 6.81842 8.89342 7.09056C9.02103 7.21863 9.13268 7.36271 9.22838 7.52279C9.35599 7.76292 9.65905 7.79494 9.8345 7.58683L10.7756 6.64232C10.9032 6.51425 10.9032 6.30614 10.8075 6.14605C10.6799 5.93794 10.5044 5.77785 10.3449 5.61777C10.1057 5.37764 9.85045 5.15352 9.54739 4.97742C9.08483 4.67326 8.54251 4.48116 7.98425 4.3691C6.94747 4.16098 5.81498 4.33708 4.88986 4.83334C4.523 5.04146 4.15614 5.2976 3.85308 5.60176L1.39671 8.06709C-0.357844 9.84405 -0.501398 12.7256 1.2053 14.5186C2.9758 16.4556 5.97449 16.4876 7.80879 14.6466L8.63822 13.8142C8.86152 13.6541 8.70202 13.2539 8.39896 13.2219Z" fill="white"/>
<path d="M14.5399 1.21541C12.7056 -0.497518 9.83451 -0.369449 8.09591 1.40751L7.33029 2.14391C7.09103 2.38404 7.26649 2.78425 7.56955 2.81627C8.03211 2.84829 8.51062 2.94434 8.97319 3.08841C9.10079 3.12043 9.27625 3.08841 9.37195 2.99236L9.53145 2.83228C10.5044 1.85575 12.0676 1.7597 13.0725 2.62416C14.2049 3.60069 14.2368 5.32962 13.2001 6.37018L10.6639 8.89955C10.329 9.23573 9.93022 9.42783 9.53145 9.57191C9.00509 9.69998 8.43087 9.66796 7.93641 9.47586C7.63335 9.34779 7.33029 9.17169 7.07508 8.89955C6.94748 8.77148 6.83583 8.6274 6.74012 8.46731C6.61252 8.22719 6.30946 8.19517 6.13401 8.40328L5.19293 9.34779C5.06533 9.47586 5.06533 9.68397 5.16103 9.84406C5.28863 10.0522 5.46409 10.2123 5.62359 10.3723C5.86285 10.6125 6.14996 10.8366 6.42111 11.0127C6.88368 11.3169 7.42599 11.509 7.95236 11.621C8.98914 11.8291 10.1216 11.653 11.0467 11.1568C11.4136 10.9487 11.7805 10.6925 12.0835 10.3884L14.6356 7.82697C16.5018 5.98598 16.438 2.97635 14.5399 1.21541Z" fill="white"/>
</svg>
