<svg width="14" height="14" viewBox="0 0 14 14" fill="none" xmlns="http://www.w3.org/2000/svg">
<path fill-rule="evenodd" clip-rule="evenodd" d="M13.6694 6.99994C13.6694 7.48522 13.6171 7.95823 13.5186 8.41407C13.8036 8.94455 13.9653 9.55098 13.9653 10.1953C13.9653 12.2774 12.2775 13.9653 10.1953 13.9653C9.55104 13.9653 8.94457 13.8035 8.41413 13.5186C7.95829 13.6171 7.48528 13.6693 7.00001 13.6693C3.31661 13.6693 0.330608 10.6834 0.330608 6.99994C0.330608 6.51467 0.382897 6.04166 0.481361 5.58582C0.196427 5.05534 0.034668 4.44891 0.034668 3.80461C0.034668 1.72249 1.72255 0.0346069 3.80467 0.0346069C4.44897 0.0346069 5.05544 0.196408 5.58588 0.4813C6.04172 0.382836 6.51473 0.330547 7.00001 0.330547C10.6834 0.330547 13.6694 3.31651 13.6694 6.99994ZM7.00388 4.18649C7.86749 4.18649 8.81915 4.67442 9.10067 4.95497L9.77031 3.72542C9.42617 3.49125 9.0238 3.28817 8.56268 3.11612C8.10161 2.94424 7.5966 2.85813 7.04773 2.85813C5.46843 2.85813 4.20442 3.71226 4.20442 5.30624C4.20442 6.8016 5.42683 7.14404 6.78718 7.52513C6.93869 7.56757 7.0919 7.61049 7.24533 7.65554C7.83186 7.82826 8.43099 8.07119 8.43099 8.63258C8.43099 9.59428 6.9916 9.50134 6.30126 9.32419C5.3789 9.08805 4.70168 8.62474 4.55577 8.47888L3.88609 9.78526C4.33978 10.1074 4.85213 10.3561 5.42301 10.5318C6.59492 10.8924 8.17532 10.9509 9.17202 10.2683C9.43912 10.0855 9.65127 9.84565 9.80877 9.54925C9.96601 9.25284 10.0447 8.89605 10.0447 8.47888C10.0447 6.96439 8.93828 6.55004 7.54178 6.17352C7.50352 6.16397 7.46548 6.15453 7.4277 6.14515C6.51884 5.91949 5.76332 5.7319 5.76332 5.06474C5.76332 4.39792 6.33702 4.18649 7.00388 4.18649Z" fill="white"/>
</svg>
