<svg width="26" height="22" viewBox="0 0 26 22" fill="none" xmlns="http://www.w3.org/2000/svg">
<path d="M25 18.3333C25 18.908 24.7701 19.4591 24.361 19.8654C23.9518 20.2717 23.3968 20.5 22.8182 20.5H3.18182C2.60316 20.5 2.04821 20.2717 1.63904 19.8654C1.22987 19.4591 1 18.908 1 18.3333V6.41667C1 5.84203 1.22987 5.29093 1.63904 4.8846C2.04821 4.47827 2.60316 4.25 3.18182 4.25H7.54545L9.72727 1H16.2727L18.4545 4.25H22.8182C23.3968 4.25 23.9518 4.47827 24.361 4.8846C24.7701 5.29093 25 5.84203 25 6.41667V18.3333Z" stroke="black" stroke-width="2" stroke-linecap="round" stroke-linejoin="round"/>
<path d="M13 16.1667C15.41 16.1667 17.3636 14.2266 17.3636 11.8333C17.3636 9.4401 15.41 7.5 13 7.5C10.59 7.5 8.63636 9.4401 8.63636 11.8333C8.63636 14.2266 10.59 16.1667 13 16.1667Z" stroke="black" stroke-width="2" stroke-linecap="round" stroke-linejoin="round"/>
</svg>
