<svg width="24" height="21" viewBox="0 0 24 21" fill="none" xmlns="http://www.w3.org/2000/svg">
<path d="M19.2661 19.5262L20.0201 20.1831L19.2661 19.5262C19.0236 19.8046 18.6486 20 18.2589 20H6.9827V7.90493L10.8867 1.00262C11.6878 1.05053 12.3705 1.75032 12.3705 2.625V7V8H13.3705H20.5558C21.0057 8 21.4263 8.17231 21.7573 8.48373C22.0676 8.77562 22.2303 9.21591 22.1299 9.59838L23.0971 9.85229L22.1299 9.59839L19.833 18.3484C19.833 18.3484 19.833 18.3484 19.833 18.3484C19.7084 18.823 19.5347 19.2179 19.2661 19.5262ZM1.83984 19.125V8.875H3.26842V19.125H1.83984Z" stroke="black" stroke-width="2"/>
</svg>
