<svg preserveAspectRatio="none" width="100%" height="100%" overflow="visible" style="display: block;" viewBox="0 0 105 20" fill="none" xmlns="http://www.w3.org/2000/svg">
<g id="Socials" opacity="0.5">
<path id="Vector" d="M23.9233 1.82008L20.2873 18.8082C20.0161 20.0046 19.3201 20.2741 18.3145 19.7339L12.8606 15.7196L10.1906 18.2669C9.92056 18.5375 9.64936 18.8082 9.03017 18.8082L9.45617 13.2094L19.6297 3.98297C20.0545 3.55781 19.5133 3.40332 18.9721 3.75183L6.32297 11.704L0.867786 10.0441C-0.331011 9.65844 -0.331011 8.84646 1.13899 8.30754L22.3369 0.0835456C23.3809 -0.225438 24.2713 0.315882 23.9233 1.82008Z" fill="var(--fill-0, #FBFAFA)"/>
<path id="Vector_2" d="M70.2479 1.35625C70.4746 0.575 70.2479 1.07541e-09 69.1575 1.07541e-09H65.5492C64.6303 1.07541e-09 64.2076 0.49375 63.9809 1.04375C63.9809 1.04375 62.143 5.6125 59.5456 8.575C58.7063 9.43125 58.3203 9.70625 57.8609 9.70625C57.6342 9.70625 57.285 9.43125 57.285 8.65V1.35625C57.285 0.41875 57.0277 1.07541e-09 56.2681 1.07541e-09H50.5953C50.0195 1.07541e-09 49.6764 0.4375 49.6764 0.84375C49.6764 1.73125 50.9751 1.9375 51.1099 4.4375V9.8625C51.1099 11.05 50.9016 11.2687 50.4422 11.2687C49.2169 11.2687 46.2396 6.68125 44.4753 1.43125C44.12 0.4125 43.7708 1.07541e-09 42.8458 1.07541e-09H39.2375C38.2083 1.07541e-09 38 0.49375 38 1.04375C38 2.01875 39.2252 6.8625 43.7034 13.2625C46.6868 17.6313 50.8894 20 54.7121 20C57.0094 20 57.2912 19.475 57.2912 18.5688C57.2912 14.3938 57.0829 14 58.2346 14C58.7676 14 59.6865 14.275 61.8306 16.3813C64.2811 18.8813 64.6854 20 66.0576 20H69.6659C70.6951 20 71.2158 19.475 70.9157 18.4375C70.2295 16.2562 65.5921 11.7688 65.3838 11.4688C64.8508 10.7688 65.0039 10.4563 65.3838 9.83125C65.3899 9.825 69.7946 3.5 70.2479 1.35625Z" fill="var(--fill-0, #FBFAFA)"/>
<path id="Vector_3" d="M94.653 0.0141103C88.6954 0.326485 84.7627 5.01497 85.0111 10.9272C85.1197 13.515 86.1564 15.7417 86.402 18.1977C86.4648 18.834 86.2821 19.6192 87.0132 19.8972C87.9128 20.2382 89.2923 19.665 90.0463 19.1406C90.3033 18.9658 90.5489 18.7623 90.7374 18.5101C91.5171 19.0288 92.2568 19.5304 93.185 19.7539C97.272 20.7369 101.75 18.4872 103.741 14.8734C107.482 8.08426 102.424 -0.392836 94.653 0.0141103ZM92.3397 14.1827C92.0169 14.4349 91.7056 14.7788 91.3486 14.9766C90.8317 15.2545 90.6717 14.9651 90.4775 14.5066C89.8663 13.0479 89.7921 10.5632 90.1491 9.03572C90.6289 6.958 92.2311 5.1296 94.4331 4.93473C96.6608 4.73698 98.7285 5.87185 99.6625 7.92091C101.73 12.4804 96.438 16.9826 92.3397 14.1856V14.1827Z" fill="var(--fill-0, #FBFAFA)"/>
</g>
</svg>
