<svg preserveAspectRatio="none" width="100%" height="100%" overflow="visible" style="display: block;" viewBox="0 0 100 95" fill="none" xmlns="http://www.w3.org/2000/svg">
<g id="&#208;&#155;&#208;&#190;&#208;&#179;&#209;&#130;&#208;&#184;&#208;&#191; &#208;&#161;&#208;&#191;&#208;&#190;&#209;&#128;&#209;&#130; &#208;&#147;&#209;&#128;&#209;&#131;&#208;&#191;&#208;&#191; 1">
<g id="Vector">
<path d="M16.5885 53.8652C15.1134 54.54 14.1876 55.7049 13.8759 57.241C13.6698 58.2567 13.6836 59.3416 13.7564 60.3836C13.8402 61.5732 13.6191 62.658 13.1109 63.7124C12.9048 64.1389 12.7249 64.5764 12.5368 65.0112C12.1371 65.9399 12.42 66.8177 12.7867 67.6637C13.0449 68.2585 13.5737 68.5553 14.2097 68.587C14.7247 68.6133 15.2466 68.6036 15.7575 68.5484C16.616 68.4559 17.4496 68.4739 18.2847 68.7388C18.8326 68.9128 19.3518 68.9293 19.838 68.431C20.0331 68.231 20.5399 68.2186 20.8667 68.2917C21.8721 68.5181 22.8761 68.7775 23.8499 69.1156C24.9116 69.4841 25.943 69.941 26.8152 70.689C26.899 70.7607 27.0336 70.7925 27.1489 70.8036C28.8136 70.9554 30.4673 70.856 32.0947 70.4792C33.1853 70.2266 34.012 69.6056 34.3211 68.4724C34.6329 67.3325 34.2758 66.3498 33.4641 65.5439C33.1235 65.2057 32.6881 64.9642 32.2994 64.673C32.2307 64.6219 32.1827 64.5433 32.0481 64.3887C31.382 64.3418 30.5675 64.299 29.7557 64.2245C28.2119 64.0809 26.6655 63.9636 25.1313 63.7483C24.3429 63.6379 23.5628 63.3853 22.8089 63.1148C21.7788 62.7464 20.7748 62.2992 19.7612 61.8837C19.6704 61.8465 19.5881 61.7871 19.5029 61.7375C19.507 61.6891 19.5126 61.6408 19.5167 61.5925C19.8394 61.5925 20.169 61.547 20.4822 61.6008C21.7403 61.8175 22.997 62.0452 24.2469 62.3033C26.421 62.7518 28.5815 63.2818 30.7666 63.6627C31.6003 63.8076 32.5068 63.7359 33.3474 63.5854C34.5257 63.3729 35.0793 62.5199 34.9941 61.3124C34.9103 60.1033 34.3582 59.0918 33.6234 58.1698C32.9298 57.299 32.0714 56.6365 31.0784 56.1217C30.3394 55.738 29.6459 55.266 28.9509 54.8023C28.7642 54.6781 28.6487 54.442 28.5691 54.1688C28.9797 54.3386 29.3932 54.5028 29.8011 54.6808C31.5578 55.4496 33.3569 56.1396 34.8293 57.4314C35.0587 57.6316 35.2675 57.8551 35.4913 58.0622C35.9706 58.5065 36.5091 58.512 37.0062 58.0829C37.9937 57.2271 38.414 55.0065 36.7673 54.0501C36.1533 53.694 35.4872 53.4056 34.8128 53.182C33.9283 52.888 33.1922 52.4257 32.6427 51.668C32.4903 51.4582 32.3282 51.2553 32.1676 51.0525C31.2433 49.8863 30.5551 49.7138 29.1845 50.2782C28.2971 50.6439 27.5926 51.1988 27.1036 52.0489C26.8194 52.543 26.6943 52.9929 27.0158 53.5035C27.0775 53.6015 27.1064 53.7217 27.1805 53.908C26.2754 53.9424 25.439 53.8528 24.6191 53.6471C23.8073 53.4442 22.9805 53.2621 22.2087 52.9502C20.8709 52.4092 19.5276 52.3802 18.1446 52.6575C17.8808 52.71 17.6048 52.7031 17.2491 52.7307C17.3521 52.5499 17.4139 52.4367 17.4798 52.3263C17.8383 51.7232 18.2092 51.127 18.5539 50.5156C19.4631 48.9036 19.2667 47.3593 18.1652 45.9335C17.0363 44.472 15.8537 43.0546 14.6972 41.6151C14.0984 40.8699 13.505 40.1218 12.909 39.3738C12.9296 39.3392 12.9516 39.3048 12.9722 39.2703C13.6713 39.5035 14.3717 39.7271 15.0666 39.9714C16.5596 40.4958 18.036 41.074 19.5455 41.5434C20.2899 41.7752 21.0934 41.927 21.868 41.916C23.1234 41.898 24.1493 41.2369 24.7688 40.1756C25.8043 38.4008 26.7561 36.5721 27.653 34.7227C27.9785 34.0506 28.0211 33.246 28.2409 32.5145C28.326 32.2301 28.5403 31.9859 28.6955 31.7237C28.8726 31.9542 29.1281 32.1598 29.216 32.422C29.5758 33.493 29.9467 34.5668 30.1966 35.6667C30.5221 37.0966 31.408 37.9798 32.6551 38.6036C34.1028 39.3282 34.6467 40.1895 34.5862 41.6841C34.3926 41.5102 34.2428 41.3556 34.0725 41.2259C33.0685 40.4627 31.9189 40.0266 30.6979 39.7906C29.8409 39.6236 29.1143 39.9244 28.6433 40.6669C28.0554 41.5944 27.539 42.566 26.9608 43.5004C26.1656 44.7853 25.1328 45.8438 23.9268 46.7603C23.1852 47.3234 22.4146 47.7705 21.5137 47.9816C21.2376 48.0465 21.2115 48.179 21.32 48.4109C21.592 48.9892 21.8721 49.5646 22.1139 50.1553C22.2223 50.4217 22.2306 50.7281 22.3212 51.0028C22.3611 51.1228 22.4833 51.294 22.5822 51.3036C23.2483 51.3657 23.9172 51.3837 24.5847 51.4278C25.7837 51.5079 26.7946 51.0635 27.6736 50.2919C28.8026 49.2997 30.0428 49.2375 31.382 49.7634C33.6151 50.6398 35.4227 52.1262 37.079 53.8086C37.7286 54.4683 38.2822 55.2246 38.8686 55.9451C39.5457 56.7772 39.5636 57.7074 39.2202 58.6736C39.1228 58.9454 39.0183 59.2297 38.8508 59.4588C37.8715 60.8003 37.5391 62.3626 37.2754 63.9567C37.1806 64.5281 37.0928 65.1146 36.8867 65.6487C36.7109 66.1042 36.3909 66.5141 36.0847 66.9046C35.9981 67.0151 35.7399 66.9902 35.5655 67.0261C35.5421 67.534 35.5476 68.093 35.4858 68.6451C35.4021 69.3861 35.0587 70.0031 34.4982 70.5041C34.398 70.5938 34.3527 70.7773 34.3363 70.9249C34.2745 71.4853 34.2607 72.0525 34.1796 72.6088C34.0354 73.6052 33.5135 74.3463 32.5699 74.7259C31.4698 75.1689 30.3628 75.5981 29.2448 75.9887C28.0623 76.4013 26.866 76.1985 25.6834 75.9487C24.8649 75.7762 24.0299 75.6368 23.2428 75.3635C22.14 74.9798 21.0852 75.1676 20.0179 75.438C18.9055 75.7209 17.7861 75.877 16.6407 75.6712C15.7054 75.5043 15.0516 74.9853 14.7453 74.0827C14.5557 73.5238 14.4321 72.9427 14.3662 72.3285C14.5598 72.6584 14.7508 72.9897 14.9458 73.3195C15.5131 74.2759 16.2685 74.9522 17.4564 74.7949C17.9426 74.73 18.4138 74.512 18.8794 74.3339C19.6169 74.0537 20.3256 73.6743 21.0837 73.4713C22.2498 73.1594 23.4544 73.1015 24.652 73.3182C26.0584 73.5721 27.458 73.8716 28.8699 74.0965C29.3176 74.1683 29.8135 74.1365 30.2516 74.0178C30.8161 73.866 31.1141 73.3084 31.0207 72.8227C30.9149 72.2747 30.3793 71.8083 29.812 71.8262C28.12 71.8787 26.4787 71.575 24.8539 71.1541C24.3581 71.0257 23.8773 70.8422 23.3843 70.7001C23.1838 70.642 22.9709 70.5965 22.7621 70.5938C20.875 70.5675 18.9878 70.5786 17.1007 70.5261C15.6655 70.4861 14.4664 69.8581 13.4487 68.859C13.2001 68.6146 12.9378 68.38 12.6645 68.1647C11.9255 67.5837 11.4998 66.8647 11.526 65.8875C11.5767 63.9457 11.563 62.0024 11.6481 60.0619C11.6921 59.0738 11.8596 58.087 12.0369 57.1112C12.2127 56.1438 12.8073 55.4247 13.5985 54.8796C14.4939 54.2626 15.5048 53.9507 16.5926 53.8638L16.5885 53.8652Z" fill="#FBFAFA"/>
<path d="M6.24504 37.5644C3.30447 38.6313 0.980584 40.2406 0.265014 43.5087L0.119428 43.4424C0.310339 42.4446 0.464166 41.4385 0.7004 40.4517C1.26214 38.0986 2.14115 35.8794 3.59152 33.9196C3.75496 33.6987 3.91428 33.4696 4.10931 33.2805C5.88794 31.5581 6.75733 29.4175 7.0952 26.9941C7.43994 24.5222 8.35465 22.216 9.27075 19.914C9.80503 18.5725 10.3832 17.2807 11.4614 16.2566C12.9557 14.8365 14.7206 13.9132 16.7011 13.5225C18.9797 13.074 21.2926 12.7773 23.6 12.4916C26.9581 12.0762 30.3011 11.6414 33.4408 10.253C36.884 8.72796 39.5816 6.32791 41.6664 3.21433C42.36 2.17923 42.9753 1.09168 43.6442 0C43.6923 0.0717669 43.7678 0.144914 43.7953 0.231862C44.2183 1.57611 44.3337 2.96729 44.1922 4.35156C44.0521 5.72203 43.2568 6.82476 42.3833 7.83916C41.3051 9.09232 40.1707 10.3013 38.5858 10.9168C37.5227 11.3295 36.4199 11.6401 35.3526 12.0416C34.372 12.4116 33.3844 12.7828 32.456 13.2617C31.4396 13.7847 30.8216 14.7053 30.4481 15.7791C30.3547 16.0496 30.2585 16.12 29.9563 16.0288C27.3001 15.2242 24.5958 14.7426 21.8104 15.0048C19.1774 15.2532 16.7987 16.1296 14.9129 18.0742C14.5448 18.4524 14.2591 18.9175 13.968 19.3632C13.3279 20.3487 12.6783 21.33 12.0877 22.3457C11.1551 23.9453 10.9313 25.7091 11.0302 27.5254C11.0603 28.0884 11.129 28.6543 11.232 29.2077C11.2953 29.5542 11.1675 29.6563 10.8681 29.7405C9.33118 30.1752 7.96185 30.904 6.86721 32.0991C5.53495 33.5538 5.25203 35.1962 6.01018 37.0193C6.08572 37.2002 6.16538 37.3782 6.24641 37.5644H6.24504Z" fill="#FBFAFA"/>
<path d="M54.8832 24.133C55.1084 24.3456 55.3419 24.5512 55.5562 24.7734C55.8625 25.0908 56.1303 25.4523 56.4613 25.7381C56.7978 26.0279 57.0368 25.9341 57.0725 25.4979C57.1137 24.9983 57.0821 24.4918 57.0697 23.988C57.0588 23.5602 57.0231 23.1337 57.0135 22.7059C57.0107 22.5679 57.0588 22.4285 57.0835 22.2905C57.1274 22.2823 57.1714 22.2725 57.2153 22.2643C57.328 22.4685 57.464 22.6645 57.5505 22.8798C57.8086 23.516 58.049 24.162 58.2963 24.8023C58.7743 26.0389 59.7027 26.9153 60.6064 27.8331C61.142 28.3769 61.5953 29.0379 61.9496 29.7183C62.8108 31.3704 63.6198 33.0501 64.4012 34.7421C65.7157 37.5838 66.0274 40.6159 65.9697 43.7019C65.9285 45.8963 65.5357 48.0231 64.5194 49.9939C63.6445 51.6901 62.44 53.0757 60.7163 53.9535C58.4858 55.088 56.0273 54.0404 55.4615 51.7135C55.2678 50.92 55.4793 50.3859 56.1838 49.9649C56.7717 49.613 57.3774 49.29 57.9721 48.9491C60.4402 47.5386 61.6557 45.3236 61.9386 42.5605C62.4194 37.8735 61.2629 33.5537 58.9308 29.5155C58.5201 28.8048 57.8609 28.4045 57.115 28.1285C56.7016 27.9752 56.2787 27.8456 55.8721 27.673C55.2266 27.3984 54.7692 26.9195 54.702 26.2073C54.6387 25.5477 54.6882 24.8782 54.6882 24.213C54.7527 24.1868 54.8173 24.1592 54.8819 24.133H54.8832Z" fill="#FBFAFA"/>
<path d="M56.5944 17.7347C57.2523 18.2136 57.8155 18.6469 58.4033 19.0444C59.0475 19.4791 59.7039 19.8945 60.3715 20.2907C61.212 20.7889 62.1624 20.9324 63.1019 21.1367C63.7886 21.2843 64.4973 21.5148 65.088 21.8848C66.1441 22.5444 67.1302 23.32 68.1218 24.0805C69.0778 24.8133 69.8167 25.7394 70.3332 26.8352C71.0418 28.3409 71.7395 29.8522 72.4469 31.358C73.2146 32.992 73.194 34.6675 72.7325 36.3734C72.5128 37.1848 72.3218 38.0047 72.1022 38.8148C71.7354 40.1632 72.1392 41.3902 72.6941 42.5812C73.514 44.3395 74.3958 46.0674 75.1993 47.8339C76.0796 49.7703 76.6167 51.8005 76.6607 53.9452C76.6826 55.0811 76.7911 56.2045 77.1894 57.281C77.2141 57.3486 77.221 57.4218 77.2347 57.4935L77.1029 57.5626C76.5974 56.7041 75.9849 55.8913 75.6113 54.9789C74.952 53.3725 74.3793 51.7233 73.878 50.0601C73.0759 47.3992 71.9867 44.897 70.2466 42.7151C69.8895 42.2665 69.7549 41.7545 69.7727 41.2176C69.8222 39.7671 69.884 38.3152 70.0022 36.8702C70.1559 34.978 70.3688 33.0942 69.9101 31.2131C69.5901 29.9006 68.9583 28.7384 68.2538 27.6067C67.9653 27.143 67.6384 26.7028 67.3679 26.228C66.5136 24.7278 65.2183 23.7162 63.7584 22.8784C63.0456 22.4685 62.3629 21.9909 61.6172 21.6557C61.1048 21.4252 60.5115 21.3216 59.9471 21.283C59.178 21.2305 58.5804 20.9421 58.0916 20.3556C57.869 20.0892 57.5985 19.8573 57.3279 19.6364C56.7579 19.1727 56.5519 18.5724 56.5944 17.7375V17.7347Z" fill="#FBFAFA"/>
<path d="M45.7262 5.98705C46.4637 6.58879 47.237 7.19329 47.9772 7.83642C48.3536 8.1649 48.7079 8.53615 49.0019 8.93916C49.6103 9.77137 50.411 10.2765 51.3986 10.4932C53.4175 10.9362 55.4269 11.4399 57.4637 11.7767C59.2464 12.0707 60.7449 11.4123 61.617 9.77827C62.1953 8.69625 62.5661 7.50243 63.0385 6.36107C63.5234 5.19209 64.0124 4.02588 64.5123 2.86381C64.6002 2.66093 64.7513 2.48566 64.96 2.33108C64.9243 2.52981 64.9024 2.7327 64.8515 2.92868C64.5027 4.27154 64.3172 5.68894 63.7542 6.93521C62.908 8.8039 61.8437 10.5801 60.7806 12.3398C60.1982 13.3031 59.3096 13.978 58.123 14.0774C57.8318 14.1022 57.5255 14.0319 57.2343 13.967C56.8649 13.8842 56.5092 13.7365 56.1383 13.6647C54.7772 13.3998 53.8103 13.8911 53.3832 15.2215C53.0357 16.3049 52.8695 17.4463 52.6222 18.5628C52.5097 19.0693 52.4149 19.5799 52.2762 20.0782C52.2212 20.2742 52.0935 20.4729 51.9465 20.6123C51.8408 20.7117 51.621 20.7863 51.4988 20.7421C51.393 20.7034 51.2804 20.4716 51.2982 20.3418C51.4233 19.4226 51.5716 18.5063 51.7337 17.5939C51.7968 17.2338 51.9163 16.8845 52.007 16.5286C52.2968 15.394 52.0509 14.3727 51.198 13.5916C50.4262 12.8849 49.5828 12.2473 48.7231 11.6497C47.9018 11.0797 47.3207 10.3772 46.9953 9.42082C46.6272 8.33742 46.1904 7.27748 45.7866 6.20649C45.7509 6.11126 45.7331 6.00776 45.7275 5.98705H45.7262Z" fill="#FBFAFA"/>
<path d="M8.5443 65.1492C9.61423 66.5872 10.7734 67.9674 11.7211 69.4828C12.291 70.395 12.4917 71.5337 12.9256 72.5412C13.6494 74.2221 14.4185 75.8852 15.1891 77.5456C15.3415 77.874 15.5599 78.179 15.7852 78.4647C16.5708 79.4625 17.4471 79.7565 18.6502 79.3562C19.4413 79.0927 20.1885 78.6952 20.9768 78.4247C21.4576 78.2604 21.9781 78.179 22.4862 78.1389C24.1275 78.0106 25.7675 78.0451 27.4045 78.2356C28.1655 78.3239 28.8811 78.1114 29.565 77.7787C29.9345 77.5994 30.3095 77.4323 30.683 77.264C30.9674 77.1357 31.1252 76.9438 31.1638 76.607C31.1967 76.313 31.3107 76.0163 31.448 75.7513C31.5895 75.4781 31.7913 75.4795 31.9604 75.7624C32.3916 76.4801 32.1773 77.5524 31.5058 78.0396C29.1942 79.7165 26.5791 80.6742 23.8212 81.2732C22.8282 81.4886 21.8187 81.6583 20.8079 81.7659C18.37 82.0281 16.4938 81.0897 15.141 79.0264C14.0601 77.3771 13.2868 75.5843 12.6523 73.7336C11.9436 71.6676 11.0426 69.723 9.71587 67.9688C9.20082 67.2884 8.88767 66.452 8.49486 65.6819C8.42894 65.5535 8.42619 65.3921 8.39323 65.2458C8.44268 65.2126 8.49349 65.1809 8.54293 65.1478L8.5443 65.1492Z" fill="#FBFAFA"/>
<path d="M8.32854 64.8855C8.18844 64.5142 7.98793 64.1541 7.92063 63.7704C7.56902 61.7665 6.44004 60.3255 4.94023 58.9979C1.86232 56.2721 0.302075 52.739 0.0383722 48.6372C-0.0289271 47.5924 0.01365 46.5394 0.00952964 45.4905C0.00952964 45.4215 0.0424925 45.3525 0.0603475 45.2834C0.107045 45.2738 0.153743 45.2655 0.20044 45.2559C0.341905 45.7983 0.524575 46.3337 0.620717 46.883C1.13302 49.8338 2.17272 52.5582 3.99117 54.9541C4.18346 55.208 4.40595 55.444 4.64081 55.6593C5.09543 56.0734 5.54317 56.0637 5.95521 55.5958C6.25462 55.2564 6.49223 54.863 6.80401 54.4296C7.78328 57.8579 8.50298 61.2875 8.44528 64.8428C8.40683 64.8565 8.36837 64.8703 8.32992 64.8842L8.32854 64.8855Z" fill="#FBFAFA"/>
<path d="M52.018 28.7261C51.9302 28.7109 51.7694 28.7096 51.6321 28.653C50.5924 28.2278 49.5074 28.0664 48.3963 27.9518C46.8525 27.7945 45.4213 27.1983 44.0273 26.5509C43.2773 26.2018 42.5509 25.7657 41.8902 25.2675C41.4026 24.9003 41.029 24.3773 40.6225 23.9067C40.4384 23.6928 40.6046 23.3463 40.8958 23.3436C41.0854 23.3422 41.2955 23.3877 41.463 23.4747C41.827 23.6623 42.1978 23.857 42.5179 24.1095C43.6688 25.019 44.9956 25.4621 46.4267 25.5435C47.3593 25.596 48.3152 25.5725 49.1984 25.1737C50.0431 24.7927 50.8163 24.8879 51.5565 25.4359C52.1856 25.901 52.7981 26.3799 53.1512 27.103C53.6017 28.0291 53.1044 28.7771 52.0195 28.7247L52.018 28.7261Z" fill="#FBFAFA"/>
<path d="M37.2799 77.8765C37.3816 77.9324 37.4922 77.9866 37.6116 78.0393C37.7458 78.0709 37.8711 78.1041 37.9873 78.1388C38.3364 78.2432 38.7001 78.3264 39.0785 78.3886C39.4537 78.4328 39.8273 78.4682 40.1994 78.4946C41.8187 78.6138 43.4691 78.543 45.1504 78.2821C46.8493 78.018 48.4808 77.6828 50.0447 77.2765C52.0152 76.7797 53.9172 76.1012 55.7506 75.241C57.6017 74.3778 59.3741 73.3807 61.0682 72.2499C61.5943 71.8981 62.1101 71.5391 62.6153 71.1727C63.1352 70.7852 63.6447 70.3903 64.1437 69.9882C64.3177 69.8281 64.4917 69.668 64.6657 69.508C64.8576 69.3448 65.0389 69.1742 65.2098 68.9963C65.2276 68.9931 65.2381 69.0004 65.2412 69.0183L65.9391 69.6977C65.8982 69.7788 65.8322 69.8736 65.741 69.9821C65.6645 70.0694 65.6042 70.1448 65.5602 70.2079C65.2866 70.5333 64.9831 70.8455 64.6497 71.1445C64.3164 71.4436 63.992 71.741 63.6764 72.0369C63.3284 72.3571 62.961 72.6714 62.5743 72.9799C62.1842 73.2705 61.8017 73.5506 61.4264 73.8201C60.8383 74.2382 60.2471 74.6382 59.6527 75.0204C59.0584 75.4026 58.4432 75.7701 57.8069 76.1227C56.1349 77.0651 54.4128 77.8779 52.6403 78.5611C50.8678 79.2443 49.045 79.798 47.1719 80.2222C46.5901 80.3621 45.9518 80.4937 45.257 80.6168C44.5798 80.7368 43.8891 80.8314 43.1847 80.9009C42.4803 80.9703 41.7786 81.0023 41.0795 80.9969C40.3804 80.9915 39.7342 80.9215 39.141 80.7865C38.8936 80.7381 38.6432 80.6718 38.3895 80.5874C38.1537 80.5 37.922 80.3841 37.6946 80.2398C37.6318 80.1955 37.5599 80.1529 37.4793 80.1118C37.4133 80.0497 37.3561 79.986 37.3079 79.9207L35.5097 77.5256L35.5049 77.4988C35.5365 77.3639 35.5872 77.2349 35.6575 77.1117C35.7424 76.9675 35.82 76.8337 35.8902 76.7105C36.101 76.3409 36.3326 75.986 36.5853 75.6459C36.8348 75.2879 37.0964 74.9462 37.37 74.6208C38.4728 73.2624 39.715 72.0178 41.0966 70.887C42.4961 69.7529 43.9233 68.7247 45.3782 67.8024C45.7272 67.5929 46.0689 67.3939 46.4033 67.2055C46.7524 66.9959 47.1119 66.7937 47.482 66.5989C49.2964 65.6314 51.1999 64.805 53.1925 64.1196C55.1852 63.4343 57.1771 62.8507 59.1687 62.3686C59.872 62.1887 60.5696 62.0282 61.2614 61.8871C61.9531 61.7461 62.6571 61.6214 63.3729 61.513C63.6402 61.4656 63.9074 61.4183 64.1748 61.3709C64.4598 61.3204 64.7376 61.2805 65.008 61.251L65.0347 61.2462L68.3768 64.1155L68.3816 64.1423L51.5988 72.1553L51.572 72.1601L50.2641 71.1457L50.2594 71.1189L62.654 64.3264C62.5262 64.3305 62.3998 64.3437 62.2751 64.3658C62.1682 64.3847 62.0524 64.4052 61.9276 64.4273C61.5146 64.482 61.1048 64.5547 60.6982 64.6451C60.3062 64.7146 59.9083 64.8036 59.5048 64.912C57.8131 65.3224 56.1354 65.8135 54.472 66.3851C52.8232 66.9357 51.1911 67.5294 49.5759 68.1663C47.7856 68.8526 46.0801 69.7087 44.4596 70.7341C42.8569 71.7566 41.3867 72.9584 40.049 74.34C39.6571 74.7233 39.2859 75.1213 38.9357 75.5341C38.5857 75.9468 38.2491 76.3849 37.9263 76.8483C37.8089 77.0167 37.693 77.1941 37.5787 77.3805C37.4791 77.5459 37.3795 77.7112 37.2799 77.8765Z" fill="#FBFAFA"/>
<path d="M69.0335 69.6203L70.5823 68.2382C70.6913 68.1266 70.8428 68.0998 71.0367 68.1577L71.0634 68.153C71.2574 68.2109 71.4366 68.29 71.6011 68.3901C71.7028 68.4458 71.8511 68.558 72.0459 68.7266C72.2587 68.892 72.3493 69.042 72.3179 69.1769C72.2979 69.2727 72.2571 69.3537 72.1953 69.4201C72.1334 69.4864 72.0731 69.5617 72.0144 69.646C71.7911 69.944 71.5783 70.2493 71.376 70.5621L70.3617 72.3201L69.8474 73.1589C70.055 73.0852 70.2919 72.9694 70.5581 72.8115C70.8212 72.6356 71.0843 72.4598 71.3474 72.2839C71.6252 72.0871 71.8763 71.8949 72.1006 71.7075C72.3395 71.499 72.5477 71.3237 72.7248 71.1815C72.8989 71.0215 72.9979 70.9578 73.022 70.9905C73.064 71.0199 73.1865 71.0905 73.3899 71.2022C73.393 71.2201 73.3846 71.2769 73.3647 71.3727L73.1524 71.5765C72.9522 71.7966 72.6886 72.0741 72.3615 72.4088C72.0491 72.7227 71.7084 73.0322 71.3394 73.3376C70.9672 73.625 70.5873 73.8678 70.1995 74.0656C69.8116 74.2636 69.4657 74.3341 69.1618 74.2772C69.0371 74.2993 68.8861 74.2245 68.7091 74.0528C68.5319 73.8811 68.4088 73.7553 68.3397 73.6752C68.2673 73.5773 68.1725 73.4556 68.0551 73.3103C67.9524 73.1439 67.899 72.9964 67.8947 72.868C67.8822 72.7963 67.9315 72.6583 68.0426 72.4541C68.1538 72.2498 68.2811 72.0334 68.4247 71.8049C68.5653 71.5585 68.7089 71.33 68.8556 71.1194C68.9993 70.8909 69.1062 70.715 69.1764 70.5918L67.6544 71.969L65.9497 74.8186C65.9057 74.8817 65.8432 74.8928 65.7626 74.8517C65.6788 74.7927 65.5844 74.7264 65.4796 74.6526C65.3927 74.5757 65.3145 74.4973 65.2454 74.4173C65.1553 74.3225 65.0997 74.2676 65.0788 74.2529C65.0065 74.1549 64.9205 74.0318 64.821 73.8833C64.7005 73.72 64.6381 73.5741 64.634 73.4457C64.6214 73.374 64.6764 73.2166 64.7991 72.9734C64.9217 72.7301 65.0607 72.4747 65.2159 72.2072C65.3888 71.9366 65.5472 71.687 65.6907 71.4585C65.8522 71.2269 65.9623 71.0689 66.021 70.9847C66.065 70.9215 66.1678 70.7741 66.3291 70.5425C66.4875 70.2929 66.6636 70.0401 66.8576 69.7842C67.0484 69.5105 67.2261 69.2667 67.3906 69.0529C67.5552 68.8392 67.6643 68.7275 67.7177 68.7181C67.8068 68.7023 67.9352 68.7534 68.1029 68.8714C68.2853 68.9682 68.4168 69.0373 68.4974 69.0783C68.5844 69.1552 68.6819 69.2395 68.7899 69.3312C68.8978 69.4227 68.979 69.5192 69.0335 69.6203Z" fill="#FBFAFA"/>
<path d="M77.0912 71.211C77.284 71.1583 77.4649 71.0894 77.6337 71.0041C77.8024 70.9188 77.9591 70.8172 78.1038 70.6992C78.2306 70.5845 78.3502 70.4803 78.4623 70.3865C78.5923 70.2896 78.7134 70.1943 78.8255 70.1007C78.9995 69.9406 79.1075 69.8753 79.1494 69.9048C79.1914 69.9343 79.305 70.0065 79.4905 70.1213C79.5324 70.1508 79.5241 70.2077 79.4654 70.2919L79.2531 70.4957C79.0854 70.6915 78.9014 70.8995 78.7011 71.1196C78.5157 71.3186 78.3091 71.5028 78.0817 71.6723C77.8689 71.8208 77.6319 71.9366 77.371 72.0198C77.11 72.1029 76.8348 72.1055 76.5455 72.0276C76.4103 72.1992 76.2426 72.3951 76.0423 72.6152C75.8599 72.8321 75.6535 73.0163 75.4229 73.168C75.2069 73.2985 74.9711 73.3679 74.7153 73.3763C74.4773 73.3816 74.2457 73.2657 74.0205 73.0287L73.214 72.2025C73.0128 71.9981 72.9138 71.748 72.917 71.4521C72.9348 71.135 72.9989 70.8192 73.109 70.5043C73.219 70.1894 73.359 69.8877 73.5288 69.5992C73.6987 69.3107 73.8512 69.0805 73.9864 68.9089C74.1772 68.6351 74.3801 68.3777 74.595 68.1365C74.8067 67.8775 75.0426 67.6511 75.3026 67.4574C75.4829 67.3332 75.6826 67.2147 75.9016 67.102C76.1176 66.9715 76.3299 66.9246 76.5384 66.9615L76.5651 66.9568L78.1608 68.1971C78.2477 68.274 78.2613 68.4562 78.2015 68.7437C78.1386 69.0133 78.0358 69.3176 77.8933 69.6566C77.7653 69.9746 77.618 70.2869 77.4513 70.5934C77.3025 70.8966 77.1824 71.1025 77.0912 71.211ZM76.2831 71.1603C76.3272 71.0972 76.4047 70.9633 76.5159 70.7591C76.627 70.5548 76.735 70.3326 76.8399 70.0925C76.9415 69.8345 77.0343 69.5781 77.1182 69.3232C77.2199 69.0652 77.2745 68.8525 77.2818 68.6851C77.286 68.4997 77.2373 68.3791 77.1356 68.3233C77.0308 68.2495 76.8511 68.2722 76.5964 68.3911C76.544 68.5111 76.4595 68.7108 76.3431 68.9898C76.2415 69.2479 76.1518 69.5221 76.0742 69.8128C76.0112 70.0824 75.984 70.3456 75.9924 70.6026C76.0007 70.8595 76.0976 71.0455 76.2831 71.1603ZM75.8821 71.702C75.6212 71.4714 75.4624 71.195 75.4059 70.8727C75.3493 70.5504 75.3388 70.2292 75.3746 69.909C75.2404 70.1912 75.1167 70.4809 75.0034 70.7778C74.887 71.0569 74.79 71.3418 74.7125 71.6324C74.6894 71.7103 74.6621 71.8167 74.6306 71.9515C74.617 72.0832 74.661 72.1768 74.7626 72.2327C74.8853 72.3033 75.0399 72.2944 75.2265 72.2059C75.4099 72.0995 75.5414 72.0117 75.6211 71.9421C75.6683 71.8969 75.717 71.8606 75.7673 71.8331C75.8145 71.7879 75.8527 71.7441 75.8821 71.702Z" fill="#FBFAFA"/>
<path d="M82.3717 68.2263L84.735 66.1462C84.8472 66.0525 85.0091 66.0331 85.2208 66.0878C85.4293 66.1248 85.6369 66.208 85.8434 66.3375C86.0645 66.446 86.2426 66.5714 86.3779 66.7136C86.5309 66.8526 86.6047 66.9595 86.5995 67.0343C86.6026 67.0522 86.5691 67.1228 86.4989 67.2459C86.4285 67.3692 86.3525 67.5119 86.2708 67.674C86.1859 67.8183 86.1009 67.9626 86.0161 68.1068C85.9489 68.2479 85.9007 68.3396 85.8714 68.3817C85.6366 68.7186 85.4121 69.0629 85.1983 69.4147C84.9991 69.7453 84.7717 70.0718 84.5159 70.394C84.5734 70.513 84.6913 70.5567 84.8695 70.5252C85.0446 70.4757 85.2506 70.393 85.4874 70.2772C85.739 70.1403 85.9964 69.984 86.2595 69.8081C86.5226 69.6323 86.7679 69.4597 86.9954 69.2901C87.2375 69.0996 87.4472 68.9332 87.6243 68.7911C87.7983 68.631 87.9178 68.5268 87.9828 68.4783C88.1568 68.3182 88.2648 68.2529 88.3067 68.2824C88.3486 68.3119 88.4623 68.3842 88.6479 68.4989C88.6898 68.5284 88.6944 68.5553 88.662 68.5796C88.6473 68.6006 88.6431 68.629 88.6494 68.6648L88.4371 68.8686C88.0336 69.2908 87.6048 69.7267 87.1509 70.1763C86.7116 70.6049 86.2315 70.9577 85.7106 71.2346C85.3731 71.4051 85.0114 71.543 84.6257 71.6483C84.2547 71.7324 83.8821 71.8077 83.5078 71.874C83.49 71.8771 83.4292 71.8972 83.3254 71.934C83.2217 71.9709 83.1074 72.0004 82.9827 72.0224C82.858 72.0446 82.7421 72.0651 82.6352 72.084C82.5461 72.0997 82.5 72.0987 82.4969 72.0808L81.9924 71.0903C81.9861 71.0545 82.0511 71.0061 82.1873 70.9449C82.3383 70.8629 82.43 70.8097 82.4625 70.7855C82.5925 70.6886 82.7046 70.5948 82.799 70.5043C82.9111 70.4106 83.0202 70.299 83.1261 70.1695C83.2791 69.9947 83.4201 69.8036 83.549 69.5961C83.6749 69.3708 83.7918 69.147 83.8998 68.9248C83.9522 68.8047 84.0088 68.6562 84.0696 68.4794C84.1273 68.2845 84.1257 68.1186 84.065 67.9817L80.0334 71.5481L79.9453 71.6745L77.3647 75.8145L76.1239 78.1665C76.0915 78.1907 76.0736 78.1938 76.0704 78.1759C76.0495 78.1612 76.0301 78.1554 76.0123 78.1585C75.9169 78.1385 75.8122 78.0647 75.6978 77.9374C75.5658 77.8131 75.4411 77.6782 75.3238 77.5329C75.1886 77.3907 75.0801 77.2438 74.9984 77.0921C74.8957 76.9257 74.8365 76.7978 74.8208 76.7083C74.8082 76.6366 74.9571 76.3333 75.2673 75.7984C75.5778 75.2635 75.9688 74.6127 76.4406 73.846C76.8944 73.0826 77.4029 72.2633 77.9659 71.3883C78.5257 70.4953 79.0431 69.6744 79.518 68.9257C80.0107 68.1739 80.4258 67.5558 80.7634 67.0713C81.0978 66.5691 81.2829 66.3148 81.3185 66.3084C81.372 66.299 81.515 66.329 81.7478 66.3986C81.9951 66.447 82.2456 66.5135 82.4993 66.5977C82.7528 66.682 82.9709 66.7726 83.1532 66.8696C83.3324 66.9485 83.4 67.0196 83.356 67.0828C83.1852 67.2607 83.0159 67.4476 82.8481 67.6435C82.6951 67.8183 82.5362 68.0125 82.3717 68.2263Z" fill="#FBFAFA"/>
<path d="M92.1149 65.5311L93.6637 64.149C93.7696 64.0195 93.93 63.9911 94.1448 64.0637L94.1982 64.0543C94.3533 64.1007 94.5148 64.1829 94.6825 64.3008C94.7244 64.3303 94.7873 64.3745 94.8712 64.4335C94.955 64.4925 95.0404 64.5605 95.1274 64.6374C95.2143 64.7143 95.2835 64.7943 95.3348 64.8775C95.4009 64.9397 95.4297 64.9991 95.4213 65.056L97.1651 63.5287C97.271 63.3992 97.4313 63.3707 97.6462 63.4435L97.6997 63.4339C97.8548 63.4803 98.0162 63.5625 98.1838 63.6804C98.2855 63.7363 98.4338 63.8485 98.6287 64.017C98.8415 64.1823 98.9411 64.3308 98.9274 64.4625C98.9075 64.5583 98.8577 64.641 98.778 64.7105C98.7162 64.7769 98.6559 64.8521 98.5972 64.9363C98.4766 65.087 98.365 65.2359 98.2622 65.3834C98.1773 65.5277 98.0851 65.6825 97.9855 65.8477L96.9444 67.6106L96.4569 68.4446C96.6645 68.3709 96.8925 68.2567 97.1409 68.1019C97.404 67.926 97.667 67.7502 97.9302 67.5744C98.2079 67.3775 98.468 67.1837 98.7101 66.9931C98.9491 66.7847 99.1483 66.6109 99.3076 66.472C99.4994 66.3088 99.6163 66.2419 99.6582 66.2714C99.7001 66.3009 99.8139 66.373 99.9994 66.4878C100.002 66.5057 99.9941 66.5626 99.9741 66.6584L99.7619 66.8622C99.5617 67.0822 99.298 67.3598 98.971 67.6945C98.6408 68.0115 98.2911 68.3227 97.9221 68.628C97.55 68.9155 97.17 69.1581 96.7822 69.3561C96.3944 69.5541 96.0395 69.6261 95.7178 69.5724C95.6109 69.5913 95.4689 69.515 95.2918 69.3433C95.1147 69.1716 94.9915 69.0457 94.9223 68.9657C94.85 68.8677 94.7552 68.7461 94.6379 68.6007C94.5351 68.4343 94.4818 68.2869 94.4775 68.1584C94.465 68.0868 94.5143 67.9488 94.6254 67.7445C94.7365 67.5402 94.8623 67.3149 95.0028 67.0685C95.1432 66.8221 95.2869 66.5936 95.4337 66.383C95.5952 66.1513 95.711 65.9739 95.7813 65.8506C95.1345 66.3528 94.5962 66.8451 94.1663 67.3274C93.7513 67.7886 93.3403 68.3783 92.9335 69.0965L92.2431 70.1879C92.1184 70.2101 91.9675 70.1353 91.7904 69.9636C91.6133 69.7919 91.4901 69.6661 91.421 69.586C91.3487 69.4881 91.2539 69.3664 91.1365 69.2211C91.0338 69.0547 90.9803 68.9072 90.9762 68.7787C90.9815 68.7039 91.0396 68.5644 91.1508 68.3601C91.2587 68.1379 91.3845 67.9126 91.5281 67.6841C91.6687 67.4377 91.8107 67.2002 91.9544 66.9717C92.0979 66.7432 92.2065 66.5763 92.2798 66.4709C91.414 67.0858 90.7237 67.8635 90.209 68.8039L89.0311 70.7294C88.987 70.7925 88.9247 70.8036 88.844 70.7625C88.7601 70.7035 88.6658 70.6372 88.5611 70.5634C88.474 70.4865 88.396 70.408 88.3268 70.328C88.2545 70.23 88.2078 70.1736 88.1869 70.159C88.1146 70.0609 88.0198 69.9394 87.9024 69.794C87.7997 69.6276 87.7462 69.4802 87.7421 69.3517C87.7296 69.28 87.7845 69.1226 87.9072 68.8793C88.0477 68.6329 88.1956 68.376 88.3507 68.1086C88.5059 67.8411 88.6642 67.5915 88.8256 67.3599C88.987 67.1282 89.0882 66.9718 89.129 66.8907C89.1731 66.8275 89.2759 66.6801 89.4373 66.4485C89.5956 66.1989 89.7717 65.9462 89.9657 65.6902C90.1564 65.4165 90.3252 65.1743 90.472 64.9637C90.6367 64.75 90.7456 64.6383 90.7991 64.6289C90.8881 64.613 91.0166 64.6642 91.1842 64.7821C91.3666 64.879 91.4892 64.9496 91.5521 64.9939C91.6391 65.0708 91.7366 65.155 91.8445 65.2466C91.9702 65.3352 92.0604 65.4299 92.1149 65.5311Z" fill="#FBFAFA"/>
<path d="M57.5945 83.69C56.8375 84.0873 56.0851 84.5113 55.3375 84.9622C54.6032 85.4107 53.8815 85.8917 53.1723 86.405C52.8908 86.6071 52.6039 86.8172 52.3114 87.0351C52.0323 87.2507 51.769 87.4773 51.5213 87.7151L51.5013 87.7186L51.1146 87.1641C51.2617 86.9026 51.4578 86.6464 51.7031 86.3953C51.9594 86.1284 52.2326 85.8792 52.5228 85.6478C52.8238 85.4006 53.1218 85.1747 53.4166 84.9703C53.7225 84.7499 54.005 84.5544 54.2645 84.3839C55.1049 83.8335 55.9669 83.3277 56.8506 82.8666C57.7319 82.392 58.6324 81.9486 59.5522 81.5365C60.5341 81.0856 61.5353 80.6659 62.5557 80.2775C63.5761 79.889 64.6114 79.5464 65.6617 79.2496C65.9109 79.1776 66.2147 79.103 66.5732 79.0257C66.9294 78.935 67.2957 78.8631 67.6722 78.8103C68.0598 78.7415 68.432 78.7034 68.7889 78.6955C69.1592 78.6853 69.4697 78.7272 69.7204 78.8212L71.048 79.7905L71.0516 79.8107L69.6331 79.8543C69.3563 79.8479 69.0576 79.8732 68.7369 79.93C68.5474 79.9497 68.3537 79.9841 68.1555 80.0329C67.9551 80.0685 67.7546 80.104 67.5542 80.1395C67.0644 80.254 66.5758 80.3752 66.0884 80.5031C65.6121 80.6152 65.1301 80.7351 64.6427 80.863C63.7394 81.1338 62.8653 81.4133 62.0202 81.7014C61.7112 81.8254 61.3901 81.9585 61.0567 82.1006C60.7211 82.2293 60.409 82.3746 60.1204 82.5365C59.9042 82.7963 59.6946 83.0549 59.4919 83.3124C59.2866 83.5564 58.5578 84.4678 57.3054 86.0465C56.6968 86.8189 56.0859 87.5779 55.4726 88.3234C54.8727 89.0665 54.246 89.8144 53.5927 90.5671L53.0207 91.3123L52.1774 92.7492L52.1574 92.7528C52.1346 92.7015 52.0835 92.6067 52.0041 92.4684C51.9357 92.3144 51.8595 92.1549 51.7755 91.9897C51.6913 91.8246 51.6163 91.6718 51.5503 91.5312C51.4953 91.3748 51.471 91.2753 51.4772 91.2326C51.4749 91.2192 51.5531 91.1153 51.7119 90.9211C51.8707 90.7268 52.0626 90.4851 52.2874 90.1961C52.5256 89.9047 52.7816 89.5963 53.0552 89.2709C53.3265 88.9321 53.5812 88.617 53.8195 88.3256C54.0687 88.0183 54.2849 87.7585 54.4681 87.546C54.6489 87.3202 54.7625 87.1824 54.8089 87.1326C55.2877 86.5632 55.7598 85.995 56.2253 85.428C56.6884 84.8475 57.1448 84.2682 57.5945 83.69Z" fill="#FBFAFA"/>
<path d="M62.1824 87.5293L63.9549 85.9692C64.0389 85.8988 64.1604 85.8842 64.3193 85.9253C64.4756 85.9531 64.6313 86.0155 64.7861 86.1126C64.952 86.194 65.0856 86.288 65.187 86.3946C65.3017 86.4989 65.3572 86.5791 65.3532 86.6351C65.3556 86.6486 65.3304 86.7016 65.2777 86.794C65.225 86.8863 65.1681 86.9934 65.1067 87.115C65.043 87.2231 64.9793 87.3314 64.9156 87.4396C64.8653 87.5454 64.8291 87.6141 64.8071 87.6457C64.631 87.8985 64.4627 88.1567 64.3024 88.4205C64.1529 88.6685 63.9824 88.9133 63.7905 89.155C63.8338 89.2442 63.9221 89.277 64.0558 89.2533C64.1871 89.2163 64.3416 89.1543 64.5193 89.0674C64.7079 88.9647 64.9009 88.8474 65.0982 88.7156C65.2956 88.5838 65.4795 88.4542 65.6502 88.3271C65.8317 88.1841 65.989 88.0594 66.1218 87.9527C66.2523 87.8327 66.342 87.7545 66.3907 87.7182C66.5212 87.5982 66.6023 87.5492 66.6337 87.5714C66.6651 87.5934 66.7504 87.6475 66.8895 87.7336C66.9209 87.7558 66.9245 87.776 66.9001 87.7941C66.8891 87.8099 66.886 87.8312 66.8906 87.8581L66.7315 88.0109C66.4287 88.3275 66.1072 88.6546 65.7667 88.9917C65.4374 89.3131 65.0773 89.5777 64.6866 89.7853C64.4335 89.9134 64.1622 90.0167 63.8729 90.0957C63.5946 90.1588 63.3151 90.2152 63.0345 90.265C63.0211 90.2674 62.9756 90.2824 62.8977 90.31C62.8199 90.3376 62.7342 90.3597 62.6407 90.3762C62.5471 90.3929 62.4602 90.4082 62.38 90.4225C62.3133 90.4343 62.2787 90.4335 62.2763 90.4201L61.8979 89.6772C61.8932 89.6503 61.9419 89.614 62.0441 89.5682C62.1574 89.5067 62.2262 89.4667 62.2505 89.4486C62.348 89.376 62.4321 89.3056 62.5029 89.2377C62.587 89.1674 62.6688 89.0837 62.7482 88.9865C62.8629 88.8555 62.9687 88.7122 63.0654 88.5566C63.1597 88.3876 63.2475 88.2197 63.3284 88.0531C63.3678 87.9631 63.4102 87.8517 63.4558 87.7189C63.4991 87.5728 63.4979 87.4484 63.4523 87.3458L60.4286 90.0206L60.3626 90.1154L58.4272 93.2203L57.4966 94.9844C57.4722 95.0025 57.4588 95.0049 57.4564 94.9914C57.4408 94.9803 57.4262 94.976 57.4129 94.9784C57.3413 94.9634 57.2627 94.9081 57.177 94.8125C57.078 94.7192 56.9844 94.6181 56.8964 94.5092C56.7951 94.4025 56.7137 94.2924 56.6524 94.1785C56.5754 94.0537 56.531 93.9578 56.5192 93.8906C56.5098 93.8369 56.6214 93.6095 56.8542 93.2082C57.0869 92.807 57.3802 92.319 57.734 91.744C58.0745 91.1714 58.4558 90.557 58.8781 89.9007C59.2979 89.231 59.686 88.6153 60.0421 88.0538C60.4116 87.4899 60.7231 87.0263 60.9762 86.663C61.227 86.2863 61.3658 86.0956 61.3926 86.0908C61.4326 86.0838 61.54 86.1062 61.7144 86.1584C61.9 86.1948 62.0878 86.2446 62.2781 86.3078C62.4683 86.3709 62.6318 86.4389 62.7686 86.5116C62.903 86.5709 62.9536 86.6242 62.9206 86.6716C62.7925 86.8051 62.6655 86.9452 62.5397 87.0921C62.4249 87.2232 62.3058 87.369 62.1824 87.5293Z" fill="#FBFAFA"/>
<path d="M68.5508 88.8724C68.3533 89.0042 68.1294 89.1408 67.8786 89.2822C67.601 89.4282 67.3416 89.4811 67.1003 89.4408C67.0067 89.4574 66.8935 89.4013 66.7608 89.2726C66.6279 89.1438 66.5355 89.0494 66.4836 88.9893C66.4295 88.9159 66.365 88.8235 66.2903 88.7121C66.1999 88.5897 66.1531 88.4803 66.1501 88.3839C66.1406 88.3301 66.1819 88.2121 66.2739 88.0297C66.3793 87.8449 66.4901 87.6522 66.6065 87.4515C66.7363 87.2486 66.855 87.0614 66.9627 86.89C67.0837 86.7163 67.1663 86.5978 67.2104 86.5347C67.2434 86.4873 67.3204 86.3766 67.4415 86.2029C67.5602 86.0158 67.6924 85.8262 67.8378 85.6343C67.9808 85.4289 68.1141 85.2462 68.2376 85.0858C68.3611 84.9255 68.4428 84.8417 68.4829 84.8347C68.5497 84.8228 68.646 84.8612 68.7718 84.9497C68.9085 85.0223 69.0005 85.0752 69.0477 85.1084C69.0838 85.1574 69.1672 85.2395 69.2976 85.3549C69.4258 85.4567 69.4823 85.5437 69.4674 85.6156L69.4745 85.6559C69.4572 85.7143 69.4253 85.7683 69.3789 85.8181C69.3302 85.8544 69.2893 85.8964 69.2562 85.9437C69.1682 86.0701 69.0857 86.1885 69.0086 86.2991C68.9449 86.4073 68.869 86.5246 68.7809 86.651L68.0202 87.9695L67.6346 88.5986C67.9192 88.4927 68.232 88.3127 68.5732 88.0584C68.8681 87.8539 69.124 87.6632 69.341 87.4863C69.5627 87.1008 69.7699 86.7111 69.9625 86.317C70.3259 85.5604 70.6521 84.9072 70.9415 84.3575C70.9855 84.2944 71.0748 84.2924 71.2092 84.3516C71.3412 84.3975 71.4792 84.4768 71.623 84.5899C71.7668 84.7029 71.8906 84.8194 71.9944 84.9394C72.1092 85.0437 72.1501 85.1195 72.117 85.1669C71.613 86.1422 71.1133 87.1031 70.6179 88.0493C70.1202 88.982 69.5249 89.8697 68.8323 90.7124C68.3338 91.3268 67.789 91.8733 67.1977 92.3518C66.6066 92.8304 65.9431 93.211 65.2072 93.4937C65.1333 93.4652 65.0367 93.3854 64.9172 93.2543C64.7844 93.1256 64.6703 92.9865 64.5753 92.8373C64.4645 92.6769 64.3961 92.5229 64.3701 92.3751C64.3309 92.2298 64.3745 92.1252 64.501 92.0612C64.5592 92.0786 64.643 92.0845 64.7522 92.079C64.8458 92.0625 64.946 92.0447 65.0529 92.0257C65.1575 91.9933 65.262 91.9609 65.3666 91.9286C65.4578 91.8986 65.5289 91.8722 65.58 91.8493C66.1735 91.6195 66.7341 91.2018 67.2617 90.5961C67.7208 90.0716 68.1505 89.497 68.5508 88.8724Z" fill="#FBFAFA"/>
<path d="M75.0634 84.5203L76.225 83.4838C76.3068 83.4001 76.4204 83.38 76.5658 83.4234L76.5858 83.4198C76.7312 83.4633 76.8657 83.5226 76.9891 83.5976C77.0653 83.6395 77.1765 83.7237 77.3228 83.85C77.4823 83.9741 77.5503 84.0866 77.5267 84.1877C77.5117 84.2596 77.4811 84.3204 77.4347 84.3701C77.3883 84.4199 77.343 84.4764 77.2991 84.5395C77.1316 84.7631 76.972 84.9921 76.8202 85.2267L76.0595 86.5452L75.6738 87.1743C75.8295 87.1189 76.0071 87.0321 76.2068 86.9137C76.4041 86.7818 76.6015 86.6499 76.7989 86.5181C77.0072 86.3704 77.1955 86.2263 77.3638 86.0857C77.543 85.9294 77.699 85.7978 77.8318 85.6912C77.9624 85.5712 78.0367 85.5234 78.0548 85.5479C78.0862 85.5701 78.1782 85.6229 78.3307 85.7067C78.3331 85.7201 78.3267 85.7627 78.3117 85.8347L78.1525 85.9874C78.0024 86.1525 77.8046 86.3606 77.5593 86.6117C77.325 86.8471 77.0695 87.0793 76.7928 87.3083C76.5137 87.5239 76.2287 87.7059 75.9379 87.8543C75.647 88.0028 75.3875 88.0557 75.1596 88.0129C75.066 88.0296 74.9528 87.9735 74.82 87.8447C74.6872 87.7159 74.5949 87.6216 74.5429 87.5615C74.4888 87.4881 74.4176 87.3968 74.3296 87.2878C74.2525 87.163 74.2125 87.0524 74.2094 86.956C74.1999 86.9023 74.2369 86.7988 74.3202 86.6457C74.4036 86.4924 74.4991 86.3302 74.6068 86.1588C74.7122 85.974 74.8199 85.8026 74.93 85.6446C75.0377 85.4732 75.1179 85.3414 75.1705 85.2489L74.029 86.2819L72.7506 88.419C72.7175 88.4664 72.6707 88.4747 72.6102 88.4439C72.5474 88.3997 72.4766 88.3499 72.3979 88.2946C72.3328 88.2369 72.2741 88.1781 72.2223 88.118C72.1547 88.0469 72.1131 88.0058 72.0973 87.9948C72.0431 87.9214 71.9787 87.8289 71.904 87.7175C71.8136 87.5951 71.7668 87.4857 71.7637 87.3893C71.7543 87.3356 71.7956 87.2175 71.8875 87.0351C71.9796 86.8527 72.0837 86.6611 72.2001 86.4606C72.3299 86.2575 72.4486 86.0704 72.5563 85.899C72.6774 85.7253 72.7599 85.6068 72.804 85.5436C72.837 85.4963 72.9141 85.3856 73.0351 85.2119C73.1539 85.0247 73.286 84.8352 73.4314 84.6432C73.5746 84.4379 73.7078 84.2551 73.8312 84.0948C73.9547 83.9345 74.0365 83.8507 74.0765 83.8436C74.1434 83.8318 74.2396 83.8701 74.3654 83.9586C74.5022 84.0313 74.6008 84.0831 74.6614 84.1138C74.7266 84.1715 74.7997 84.2347 74.8806 84.3035C74.9616 84.3722 75.0226 84.4444 75.0634 84.5203Z" fill="#FBFAFA"/>
<path d="M80.7013 83.5215L81.8629 82.4849C81.9447 82.4012 82.0583 82.3811 82.2037 82.4245L82.2238 82.421C82.3692 82.4645 82.5036 82.5238 82.627 82.5988C82.7033 82.6407 82.8145 82.7248 82.9607 82.8512C83.1203 82.9752 83.1883 83.0878 83.1647 83.1889C83.1497 83.2608 83.119 83.3215 83.0726 83.3713C83.0263 83.4211 82.981 83.4775 82.937 83.5407C82.7695 83.7642 82.61 83.9933 82.4582 84.2278L81.6974 85.5464L81.3117 86.1754C81.4675 86.1201 81.6451 86.0333 81.8448 85.9148C82.0421 85.7829 82.2394 85.6511 82.4368 85.5191C82.6451 85.3715 82.8334 85.2274 83.0016 85.0868C83.1809 84.9305 83.337 84.799 83.4698 84.6924C83.6003 84.5724 83.6747 84.5245 83.6927 84.5491C83.7242 84.5711 83.8161 84.6241 83.9686 84.7078C83.971 84.7213 83.9647 84.7639 83.9497 84.8358L83.7905 84.9886C83.6404 85.1536 83.4426 85.3617 83.1973 85.6129C82.963 85.8482 82.7075 86.0805 82.4308 86.3095C82.1517 86.525 81.8667 86.7071 81.5758 86.8555C81.285 87.004 81.0255 87.0568 80.7975 87.0141C80.704 87.0307 80.5908 86.9746 80.458 86.8458C80.3251 86.7171 80.2327 86.6227 80.1809 86.5627C80.1267 86.4892 80.0556 86.3979 79.9676 86.289C79.8905 86.1642 79.8505 86.0536 79.8473 85.9572C79.8379 85.9035 79.8749 85.8 79.9582 85.6469C80.0415 85.4936 80.1371 85.3313 80.2448 85.16C80.3502 84.9751 80.4579 84.8038 80.568 84.6457C80.6757 84.4744 80.7558 84.3425 80.8085 84.2501L79.6669 85.283L78.3885 87.4202C78.3555 87.4676 78.3086 87.4759 78.2482 87.445C78.1853 87.4008 78.1145 87.3511 78.0359 87.2957C77.9708 87.2381 77.9121 87.1792 77.8602 87.1191C77.7927 87.0481 77.751 87.007 77.7353 86.996C77.681 86.9225 77.6166 86.8301 77.5419 86.7187C77.4516 86.5962 77.4048 86.4868 77.4016 86.3905C77.3923 86.3368 77.4336 86.2187 77.5255 86.0363C77.6175 85.8538 77.7217 85.6623 77.8381 85.4617C77.9679 85.2587 78.0866 85.0716 78.1942 84.9002C78.3153 84.7264 78.3979 84.608 78.4419 84.5447C78.475 84.4973 78.552 84.3868 78.6731 84.2131C78.7919 84.0258 78.9239 83.8364 79.0694 83.6444C79.2125 83.4391 79.3457 83.2562 79.4692 83.0959C79.5926 82.9356 79.6744 82.8519 79.7145 82.8448C79.7814 82.833 79.8776 82.8713 80.0034 82.9597C80.1402 83.0325 80.2388 83.0842 80.2993 83.115C80.3646 83.1727 80.4377 83.2358 80.5186 83.3046C80.5996 83.3734 80.6604 83.4456 80.7013 83.5215Z" fill="#FBFAFA"/>
</g>
</g>
</svg>
