<svg xmlns="http://www.w3.org/2000/svg" xmlns:xlink="http://www.w3.org/1999/xlink">
<symbol id="icon-sg-search" viewBox="0 0 20 20">
<circle cx="8.75" cy="8.75" r="5.75" fill="none" stroke="currentColor" stroke-width="1.5"/>
<path d="M13 13L17.5 17.5" fill="none" stroke="currentColor" stroke-width="1.5" stroke-linecap="round"/>
</symbol>
<symbol id="icon-sg-compare" viewBox="0 0 20 20">
<path d="M4 5.5H11V14.5H4V5.5Z" fill="none" stroke="currentColor" stroke-width="1.5" stroke-linejoin="round"/>
<path d="M9 7.5H16V16.5H9V7.5Z" fill="none" stroke="currentColor" stroke-width="1.5" stroke-linejoin="round"/>
</symbol>
<symbol id="icon-sg-heart" viewBox="0 0 20 20">
<path d="M10 16.5S3.5 12.2 3.5 7.6C3.5 5.4 5.2 3.8 7.2 3.8C8.5 3.8 9.6 4.4 10 5.3C10.4 4.4 11.5 3.8 12.8 3.8C14.8 3.8 16.5 5.4 16.5 7.6C16.5 12.2 10 16.5 10 16.5Z" fill="none" stroke="currentColor" stroke-width="1.5" stroke-linejoin="round"/>
</symbol>
<symbol id="icon-sg-profile" viewBox="0 0 20 20">
<circle cx="10" cy="7" r="3.25" fill="none" stroke="currentColor" stroke-width="1.5"/>
<path d="M4.5 16.5C5.35 13.4 7.4 11.75 10 11.75C12.6 11.75 14.65 13.4 15.5 16.5" fill="none" stroke="currentColor" stroke-width="1.5" stroke-linecap="round"/>
</symbol>
<symbol id="icon-sg-bag" viewBox="0 0 20 20">
<path d="M4.5 7.5H15.5L14.5 17H5.5L4.5 7.5Z" fill="none" stroke="currentColor" stroke-width="1.5" stroke-linejoin="round"/>
<path d="M7 7.5V5.8C7 4.25 8.25 3 10 3C11.75 3 13 4.25 13 5.8V7.5" fill="none" stroke="currentColor" stroke-width="1.5" stroke-linecap="round"/>
</symbol>
</svg>
